<?xml version="1.0" standalone="no"?>
<!DOCTYPE svg PUBLIC "-//W3C//DTD SVG 20010904//EN"
 "http://www.w3.org/TR/2001/REC-SVG-20010904/DTD/svg10.dtd">
<svg version="1.0" xmlns="http://www.w3.org/2000/svg"
 width="1000.000000pt" height="1000.000000pt" viewBox="0 0 1000.000000 1000.000000"
 preserveAspectRatio="xMidYMid meet">
<metadata>
Created by potrace 1.11, written by Peter Selinger 2001-2013
</metadata>
<g transform="translate(0.000000,1000.000000) scale(0.100000,-0.100000)"
fill="#000000" stroke="none">
<path d="M5032 8410 c-48 -30 -68 -82 -53 -140 18 -67 51 -89 131 -90 54 0 70
4 95 24 26 21 29 29 28 77 0 40 1 46 6 24 6 -27 7 -28 13 -8 9 35 -25 97 -65
116 -48 23 -114 22 -155 -3z"/>
<path d="M3305 7074 c-82 -22 -100 -29 -169 -74 -89 -57 -176 -157 -225 -259
-31 -66 -62 -190 -61 -241 1 -25 1 -49 0 -55 -5 -23 3 -71 12 -82 6 -7 8 -22
5 -33 -3 -11 -1 -18 4 -14 5 3 9 0 9 -5 0 -6 6 -11 14 -11 14 0 46 -57 46 -81
0 -10 -3 -10 -12 -1 -7 7 -17 12 -22 12 -6 0 -3 -5 6 -11 10 -5 15 -16 12 -24
-4 -8 -1 -15 5 -15 6 0 11 5 11 12 0 6 3 8 6 5 4 -4 2 -13 -4 -20 -7 -8 -9
-17 -5 -20 3 -4 -2 -7 -13 -8 -16 0 -16 -2 4 -10 13 -5 20 -13 17 -19 -3 -5
-2 -10 3 -10 6 0 13 -7 16 -16 5 -12 2 -15 -10 -10 -10 4 -14 2 -11 -6 2 -7
12 -12 21 -12 13 2 14 -1 6 -11 -9 -10 -6 -19 9 -34 12 -12 21 -26 21 -32 0
-5 4 -8 9 -5 5 3 11 -3 14 -13 6 -24 117 -115 178 -146 101 -51 252 -68 361
-40 58 15 178 73 208 100 8 8 39 35 68 61 40 36 51 52 47 68 -3 12 -2 15 1 8
5 -10 9 -10 20 -1 19 16 18 30 -3 22 -15 -6 -16 -5 -3 9 8 9 18 14 22 12 4 -2
10 1 14 7 4 8 3 9 -4 5 -12 -7 -16 5 -13 32 1 6 -3 12 -10 12 -6 0 -9 7 -5 15
3 8 1 15 -5 15 -6 0 -8 4 -5 9 4 5 -5 18 -19 28 -37 26 -42 90 -15 163 15 39
29 61 46 69 32 14 26 16 65 -19 19 -16 37 -30 42 -30 4 0 7 -9 7 -20 0 -11 4
-20 9 -20 14 0 20 129 10 217 -35 309 -287 541 -593 547 -34 0 -97 -8 -141
-20z m231 -104 c23 -12 50 -33 60 -48 10 -15 28 -35 41 -45 17 -14 22 -27 20
-53 -1 -19 -6 -34 -10 -34 -5 0 -5 -4 -2 -10 3 -5 -1 -10 -9 -10 -9 0 -16 -4
-16 -9 0 -5 -12 -11 -27 -13 -16 -2 -27 -8 -26 -15 2 -8 -8 -11 -29 -8 -18 2
-38 -1 -45 -6 -14 -12 -36 -2 -28 12 4 5 -1 9 -10 9 -8 0 -20 -10 -25 -22 l-9
-23 -7 23 c-6 23 -9 24 -57 27 -47 3 -74 24 -75 57 0 16 -6 35 -12 43 -8 9 -8
15 0 20 5 3 10 13 10 21 0 8 -4 12 -10 9 -20 -12 -9 16 18 46 36 41 54 48 136
48 51 1 81 -5 112 -19z m-569 -842 c-3 -8 -6 -5 -6 6 -1 11 2 17 5 13 3 -3 4
-12 1 -19z"/>
<path d="M3300 6786 c0 -8 6 -16 14 -19 10 -4 12 0 9 14 -6 22 -23 26 -23 5z"/>
<path d="M6606 7059 c-85 -20 -165 -69 -250 -152 -118 -117 -165 -216 -187
-395 -10 -82 -9 -113 4 -197 9 -55 23 -114 30 -130 8 -17 23 -48 33 -70 35
-78 83 -143 155 -208 225 -206 536 -207 757 -2 59 54 108 130 91 140 -5 4 -9
1 -9 -4 0 -6 -8 -11 -17 -10 -11 0 -13 3 -5 6 20 8 14 35 -17 62 -15 14 -36
41 -45 59 -9 17 -21 32 -27 32 -6 0 -8 9 -4 19 3 11 1 22 -5 26 -13 8 -5 50
21 109 33 77 87 106 137 76 26 -16 32 -17 50 -4 19 13 20 12 20 -22 0 -19 3
-38 7 -42 4 -4 5 5 3 21 -3 15 -1 27 4 27 10 0 5 103 -9 180 -8 50 -49 144
-90 209 -81 130 -242 246 -372 271 -65 12 -221 12 -275 -1z m217 -140 c49 -21
87 -51 87 -69 0 -5 -7 -15 -15 -24 -8 -8 -15 -19 -15 -25 0 -6 -6 -11 -14 -11
-7 0 -16 -9 -19 -20 -3 -14 -14 -20 -31 -20 -16 0 -26 -6 -26 -15 0 -14 -11
-19 -37 -16 -7 1 -13 -3 -13 -9 0 -6 -5 -8 -12 -3 -7 4 -29 9 -50 10 -28 2
-46 13 -82 50 -25 26 -46 56 -46 68 0 45 101 104 178 105 24 0 67 -10 95 -21z
m474 -501 c-3 -8 -6 -5 -6 6 -1 11 2 17 5 13 3 -3 4 -12 1 -19z"/>
<path d="M3955 6119 c-4 -6 -5 -12 -2 -15 2 -3 7 2 10 11 7 17 1 20 -8 4z"/>
<path d="M4603 4152 c-26 -27 -15 -64 35 -112 56 -54 136 -94 252 -126 104
-29 309 -34 404 -9 187 49 316 136 316 213 0 11 -6 24 -13 30 -8 7 -172 12
-497 14 -391 2 -486 0 -497 -10z"/>
<path d="M4372 1961 c9 -6 60 -16 115 -22 54 -6 112 -12 130 -14 18 -2 37 -6
42 -9 18 -11 644 -18 711 -7 53 8 23 9 -160 9 -124 -1 -265 1 -315 5 -352 23
-497 35 -520 42 -17 6 -18 5 -3 -4z"/>
<path d="M5448 1913 c7 -3 16 -2 19 1 4 3 -2 6 -13 5 -11 0 -14 -3 -6 -6z"/>
<path d="M4888 1593 c7 -3 16 -2 19 1 4 3 -2 6 -13 5 -11 0 -14 -3 -6 -6z"/>
<path d="M4958 1593 c23 -2 59 -2 80 0 20 2 1 4 -43 4 -44 0 -61 -2 -37 -4z"/>
<path d="M4687 1583 c18 -2 50 -2 70 0 21 2 7 4 -32 4 -38 0 -55 -2 -38 -4z"/>
<path d="M5228 1583 c7 -3 16 -2 19 1 4 3 -2 6 -13 5 -11 0 -14 -3 -6 -6z"/>
<path d="M5288 1583 c12 -2 30 -2 40 0 9 3 -1 5 -23 4 -22 0 -30 -2 -17 -4z"/>
<path d="M4182 1525 l-30 -25 -6 -277 c-14 -641 -18 -778 -21 -781 -7 -7 -124
53 -202 105 -97 63 -189 161 -203 215 -13 48 -31 50 -20 2 19 -81 130 -198
265 -275 72 -42 193 -99 209 -99 9 0 10 22 5 83 -10 112 -17 842 -10 945 5 76
9 86 34 108 15 13 24 24 18 24 -5 0 -23 -11 -39 -25z"/>
<path d="M5872 1511 l33 -29 -4 -499 c-2 -274 -4 -529 -5 -566 l-1 -68 33 6
c52 10 197 74 259 115 77 50 129 104 159 162 26 52 29 88 11 132 -12 28 -13
28 -36 -45 -26 -81 -48 -117 -103 -169 -37 -35 -186 -120 -210 -120 -7 0 -26
-7 -42 -15 -15 -8 -32 -12 -37 -9 -5 3 -9 237 -9 544 l0 539 -27 26 c-15 14
-34 25 -41 25 -7 0 2 -13 20 -29z"/>
<path d="M7646 643 c-6 -14 -5 -15 5 -6 7 7 10 15 7 18 -3 3 -9 -2 -12 -12z"/>
</g>
</svg>
